<?xml version="1.0" encoding="utf-8"?>
<!-- Generator: Adobe Illustrator 22.1.0, SVG Export Plug-In . SVG Version: 6.00 Build 0)  -->
<svg version="1.1" id="carte" xmlns="http://www.w3.org/2000/svg" xmlns:xlink="http://www.w3.org/1999/xlink" x="0px" y="0px"
	 viewBox="0 0 1270.6 1124.1" style="enable-background:new 0 0 1270.6 1124.1;" xml:space="preserve">
<style type="text/css">
	.st0{fill:#FDF5E2;}
	.st1{fill:#ED8757;}
	.st2{fill:#60B47A;}
	.st3{fill:#DB4A47;}
	.st4{fill:#F8C953;}
	.st5{fill:#F58484;}
	.st6{fill:none;}
	.st7{fill:#FFFFFF;}
	.st8{font-family:'LuckiestGuy-Regular';}
	.st9{font-size:30px;}
</style>
<g id="sud" transform="translate(1080.973 803.45)">
	<path id="Tracé_53" class="st0" d="M33.5,120.9c7,4,12.6,10,16.3,17.2c0,0,18.4-27.2,18.4-36.5S83,84.4,83,84.4s-2.9-20,0-25
		s26.1-28.6,49.8-27.2l28.4-12.9c0,0,23.9-19.3,27.4-19.3s-0.7,16.7-30.3,37.7l-20.2,54.9c0,0,30.8,6.3,21.3,54.9
		c0,0,3.2,38,29.1,30.4v142.8H0c0,0,22.5-16.6,28.4-22.3s-1.2-36.5-1.2-36.5l-0.6-50.1l-15.8-36.1l6.1-17.8c1-2.2,3.2-4.3,5.2-4.6
		c4.1-0.6,8.3-0.8,9.4-5.6c2-8.1,1.6-18.6-2.6-24.3c-0.2-0.2-3.4-10.6-3.2-10.8S33.4,120.8,33.5,120.9z"/>
</g>
<g id="Panama" transform="translate(968.956 885.672)">
	<path id="Tracé_51" class="st0" d="M125.2,92c4-5,14.9,6.6,15.7,0c0-8.7,15.3-17.7,15.3-17.7s-0.4-15.4-11-38.8
		c-7.3-16.1-18.9-17.6-25.4-17c-3.2,0.2-6.2-1.6-7.4-4.6L108.1,5c0,0-29.8-1.7-44.8,21.6S15.7,0,15.7,0L1.3,10.2l6.3,22L0.1,58.8
		v1.5c-0.1,0.5-0.1,1,0,1.5c0.4,0.1,0.8,0.1,1.3,0l14.4-6.5c2.7-1.2,6,0,7.2,2.8c0,0,0,0.1,0,0.1l5,11.3c0,0,40.8,3,44.4-5.2
		S125.2,92,125.2,92z"/>
</g>
<a href="#">
<g id="Costarica" transform="translate(893.715 838.7)">
	<path id="Tracé_52" class="st1" d="M0,5.8l1.5,36c0,0.6,0.3,1.2,0.9,1.5C5.3,45,15.3,50.8,16,48.9c0.6-2.4,1.1-4.9,1.3-7.4
		c0.1-0.7,0.6-1.3,1.2-1.5c0.7-0.2,1.4,0.1,1.8,0.6c3.7,5,6.1,10.8,7.2,16.9c0,0.7,0.4,1.3,1.1,1.6C33,60.7,50.9,68.6,55,88.6
		c0.1,0.9,0.9,1.6,1.8,1.5c0,0,0,0,0,0c3.7-0.5,12.9-1.9,12.9-3.9v18.6c0,0.7,0.4,1.3,0.9,1.6l4.8,2.7c0,0,7.5-25.2,7.2-30
		s-4.8-17.3-3-20.1c3.9-3.2,8.3-5.6,12.9-7.4c0.5-0.2,0.9-0.7,1-1.3c0.1-0.6,0-1.2-0.4-1.6c-6.5-7.1-13.7-13.4-21.6-18.9
		c-0.2-0.1-0.4-0.3-0.5-0.5c-2.3-4-4.2-8.1-5.7-12.5c-0.1-0.6,0.5-4.8,0-5L39.6,2c-1.2-0.5-6.5-2.1-7.3-1c-1.5,2.8-4.4,4.5-7.5,4.8
		c-3.2,0.1-7.6-1.1-9.6-3.7C10.6-1.8,5.5,0.4,0.7,3.9C0.1,4.4-0.1,5.1,0,5.8L0,5.8z"/>
</g>
<text transform="matrix(1 0 0 1 799.0659 893.9879)" class="st7 st8 st9">COSTARICA</text>
</a>

<g id="Nicaragua" transform="translate(840.902 715.147)">
	<path id="Tracé_50" class="st0" d="M1.2,65.3l0.6,14.2c0,0.9,0.5,1.6,1.3,2.1c4.3,2.3,19,10.9,22.6,21.1c0.1,0.1,0.1,0.3,0.2,0.4
		c1.5,2.2,15.5,22.4,26.2,25c0.5,0.2,1,0.2,1.4,0c5-2.7,11.1-2.5,16,0.4c6.3,4.6,13.9,0,16.4-1.9c0.5-0.4,1.2-0.5,1.8-0.3
		c9.6,2.7,18.8,6.6,27.4,11.5c0.7,0.4,1.6,0.4,2.3,0c0.7-0.5,1.1-1.3,1.1-2.1V39.4c0-0.2,0-0.5,0-0.7l4.6-15.9
		c0.2-0.6,0.6-1.1,1.1-1.4c5-3.1,7.2-9.3,5.4-14.9c-0.4-1.6-4-5.2-5.4-5.9c-1.4-0.7-3-0.7-4.4,0l-18.4,12.4h-0.5l-14.7,3.2
		c-4.5,1-8.3,4.1-10.2,8.4c-2.4,5.9-6.5,8-11.7,11.3c-3.5,2-9-1.7-9-1.7S45.1,21.5,26.6,57.5c-0.2,0.5-0.7,0.9-1.2,1.1
		c-6.9,2.8-12,0.2-19.3,0c-0.7-0.1-5.5,1.6-6,2.2S1.1,64.5,1.2,65.3L1.2,65.3z"/>
</g>

<a href="#">
<g id="Honduras" transform="translate(799.069 689.411)">
	<path id="Tracé_49" class="st2" d="M20.1,13.8c0,0,13.5-7.7,46.3-11.5c0,0,34-13.1,99.6,24.2c0,0-19.2,12.3-23.3,12.3
		s-21.1,7.4-21.8,13.6S108.8,71.3,97,60.1S72,99,72,99c-15-3.6-29-10.6-40.9-20.5l4.8-7.7c1.3-2,1.6-4.4,1-6.7
		c-0.6-2.2-2.1-4.1-4.2-5.1c-4.7-2.1-9.4,0.3-17.3-0.4C10.7,58.4,1.9,47.3,1.9,47.3s-8-20.5,8.7-31.1"/>
</g>
<text transform="matrix(1 0 0 1 848.5494 710.4269)" class="st7 st8 st9">El Salvador</text>
</a>

<a href="#">
<g id="Salvador" transform="translate(774.339 728.744)">
	<path id="Tracé_48" class="st3" d="M3.3,34.6c1.4-9.1,2.6-17.1,9.3-23C15.8,10,24.8,0.6,28.2,0c0,0,9.1,17,11.4,16.8
		s17.3,0,17.3,0s8.7,2.1,3.8,19.1c0,0-16.1,14.9-30.7,0L0,34.6"/>
</g>
<text transform="matrix(1 0 0 1 679.4453 784.5169)" class="st7 st8 st9">Honduras</text>
</a>

<g id="Belize" transform="translate(792.345 614.896)">
	<path id="Tracé_54" class="st0" d="M32.8,14.7L17.5,0v14.7L0,28.8l2.2,56.9c0,0,6.9-10.3,19.1-6.9v6.9l4-22.9c0,0,0.4-32.8,0-34.1
		s11.8-7.1,11.8-9.2S32.8,14.7,32.8,14.7z"/>
</g>

<a href="pays.html">
<g id="Mexique" transform="translate(0 146.314)">
	<path id="Tracé_47" class="st4" d="M561.6,254.4c-0.8-18.3-18.6-10.8-18.6-10.8l-13.3-3.4l-15.5-3.8h-12c0,0-9.8-22.4-7.1-44
		c0,0-6.2-9.3-12.8-19.5s-14.9-23-14.9-23l-9.9-14.4l-4.7-26.1h-32.5l-17.5-30.3c0,0-12.8,52.6-23.1,47.7s-9.2-12.1-9.2-12.1
		l-11.9-8.6c0,0-6.1-25.2-48.8-56.9c-17.3-5.8-36.2-27.5-54.2-25.5L230.8,37h-70L68.9,13L63.5,0H0v13c0,0,13.4,24,15.5,24
		s2.7,22.3,2.7,22.3S44,86.8,45.2,91.7c0.8,4.5,1.1,9.2,0.7,13.7l-1.3,15.9c0,0,50.1,28,53.5,52.5s-2.7,19.4-2.7,19.4l-14.9,2.2
		c0,0,0,10.1,4.1,14.4s16.3,15.1,40,15.1l2.7,12.2c0,0,20.3,2.2,24.4,41.7l15.6,20.2l19,22.3l8.6,7.5l3.4,14.8l14.9,2.9l6.9-21.4
		v-21.6l-4.1-19.7l-8.2-17.3l-7.4-16.5l-7.5-18l-6.8-14.4l-8.6-15.9l-15.2-5.4l-7.1-9.9l-12.9-13.7l-9.3-20.3l-15-38.3l28.9,31.4
		l21.6,30.2l19.6,19.4c0,0,27.8,21.6,28.5,30.2s14.2,9.2,14.2,9.2l2.7,18.7c0,0,62.3,68.1,75.9,75.1s16.3,24.2,16.3,24.2l4.7,18.7
		l21,18v43.2l6.1,22.9l21,6.5l15.6,15.9l33.9,5c20.7,26.9,51.4,42.9,84.1,43.9h17.6l31.8,14.4h86.7l14.2,4.3
		c0,0,16.3,10.1,17.6,14.4s22.4,20.8,22.4,20.8l13.2,7.7l3.1-27.9l2.4-11.5c0.5-2.8,2.2-5.2,4.6-6.6l5.1-3.1c1.9-1.1,4-1.7,6.2-1.6
		l21.6,1.3c0,0,7.5-17.3,0-17.3c-5-0.8-9.5-3.4-12.6-7.4c-1.5-1.6-2.2-3.8-1.9-6v-1.1c0.5-4.4,3.1-8.2,7-10.2l4-2h17l23.7,1.4
		l17-14.4v-9.2l12.1,10.1l19.6-28.8v-22.3l11.5-16.5l3.4-22.9l-66.2-2.2c-9.2-0.3-17.2,6.7-18.6,16.4l-5.8,38.5L709,483.5l-84.9-9.2
		l-50-50.6l-15.3-37.5L543,354.4l3-37.8C546,316.7,562.3,272.7,561.6,254.4z"/>
</g>
<text transform="matrix(1 0 0 1 361.636 481.842)" class="st7 st8 st9">MEXIQUE</text>
</a>

<g id="nord" transform="translate(0.014)">
	<path id="Tracé_55" class="st0" d="M586.5,296.9l13.4-33.3l6.1,16.6c0,0,36.7-22.2,68.5-6.9l11-9.7l7.3,16.6l19.6,5.5l18.5,5.6
		l20.5,5.5v-23.6l-11.5-9.7l-19.1-11.1h30.6c0,0,18.4-11.1,28.7-12.5s31.1,9.7,31.1,9.7l20.8-9.8l30.4,22.3l27.1-12.5
		c0.9,7.2,2.7,14.2,5.5,20.8c4.4,9.7,28.7,16.6,28.7,16.6v50c0,0,26.9,61.2,30.6,63.2s14.7,17.2,14.7,17.2l-4.7,12.7
		c0,0,36.7,27.6,28.1-95.2c0,0-45.2-107.5-19.6-153.3s55.8-63.8,55.8-63.8l31-30.5l13.5,5.5V76.4l36.7-14c0,0-18.3-12.5-25.7-12.5
		s18.4-6.9,18.4-6.9l7.3-25h-23.2l1.2-18H0v158.5l31.5-6.2l29-5.1v21.6l100.6,29.8h82.5V186c0,0,72.5-9.4,97.4,78.2l14.8,12.3
		c0,0,18.4,23.8,27.1,8.8c5.6-9.6,12.1-18.6,19.3-27.1h24.6v21.2l12.3,17.6l7.7,27.1l17.4,14.6c0,0-13.3,51,21.9,50.4h15.5l10.3,11
		l32-11C544,389.1,520.2,329.3,586.5,296.9z"/>
</g>

<a href="#">
<g id="Guatemala" transform="translate(712.594 639.897)">
	<path id="Tracé_56" class="st5" d="M104.1,54.9L104.1,54.9c-0.9-0.6-2.2-3.6-3.3-3.6l-5.1-1.5c-3.3,0-9.2,1.5-9.4-1.9L83.8,9.2
		c-0.2-3.4-1.2-9.1-4.4-9.2h-35c-1.2,0-11.3,1.3-12.3,1.9c-0.4,0.2-1.6,10.2-2.2,10.8c-4.6,4.1-9.6,7.6,10.3,17.9
		c1.2,0.6,6.5-1.3,7.1,0c1.8,3.3-2,7.6-2.9,11.4c-1,2.6-10.3,0.7-21.5,2.5c-1.2-0.1-4.2-0.6-5.3,0l-7,3.5c-1.6,1-4.6,4.2-5,6.1
		L0,90.9c-0.3,2.3,4.1,5.3,5.7,6.7c5.7,5.2,20.1,16.7,34.5,16.6c0.7,0,1.3,0.1,2,0.3c3.8,1.4,16.9,6.5,16.1,8.8s6.8,0,6.8,0
		l3.5-11.5c0.3-0.9,0.7-1.7,1.3-2.4l7.9-9.2c1.1-1.3,2.6-2,4.3-2.2l3.1-0.3c2.9-0.3,5.2-2.5,5.6-5.4l1.4-8.7
		c1-6.6,4.8-12.5,10.4-16.1l1.9-1.1C108.6,62.4,108.3,57.4,104.1,54.9z"/>
</g>
<text transform="matrix(1 0 0 1 623.9219 737.0604)" class="st7 st8 st9">GUATEMALA</text>
</a>

<rect x="361.6" y="461.3" class="st6" width="123.4" height="24.5"/>
<rect x="623.9" y="716.5" class="st6" width="177.3" height="24.5"/>
<rect x="848.5" y="689.9" class="st6" width="184.1" height="24.5"/>
<rect x="679.4" y="764" class="st6" width="153.6" height="24.5"/>
<rect x="799.1" y="873.4" class="st6" width="153.6" height="24.5"/>
</svg>
