<svg id="logo_jaune" xmlns="http://www.w3.org/2000/svg" viewBox="0 0 119 67.12">
  <defs>
    <style>
      .cls-1 {
        fill: #cc5803;
      }
    </style>
  </defs>
  <g id="corps" transform="translate(29.081)">
    <path id="Tracé_74" data-name="Tracé 74" class="cls-1" d="M42.552,8.124,37.461,8H35.3a15.579,15.579,0,0,1,.4,2.206c.071.706.106,1.491.106,2.338v1.05c0,.362-.044.644-.062.882h4.447L33.42,24.534q2.885-.265,4.685-.476h2.453l2.188.079,3.4.1q2.144.053,2.964.053a6.652,6.652,0,0,0,.706-1.429c.353-.732.715-1.518,1.085-2.365.176-.415.353-.829.538-1.235h-3L46.3,18.976,50.9,8.768l-4.191-.335S44.625,8.176,42.552,8.124Z" transform="translate(-33.42 -0.977)"/>
    <path id="Tracé_75" data-name="Tracé 75" class="cls-1" d="M61.474,23.832c-.468.124-.882.212-1.262.282l-1.129.212V13.739H57.319L56.71,7.916h2.382V3.293A4.729,4.729,0,0,1,60.3,2.958a8.69,8.69,0,0,0,.944-.176L66.274,1.74,66.2,7.713h1.023l1.12.044a9.973,9.973,0,0,0,1.359-.071c-.1.5-.185,1.015-.274,1.518L68.894,12.1a11.583,11.583,0,0,1-.379,1.641h-2.32V22.9c-.547.2-1.05.362-1.5.485S61.474,23.832,61.474,23.832Z" transform="translate(-36.162 -0.24)"/>
    <path id="Tracé_76" data-name="Tracé 76" class="cls-1" d="M76.91,25.069l-1.147.309a7.553,7.553,0,0,1-1.182.221L74.36,8.9h1.191L80.7,8.738a2.763,2.763,0,0,1,.2.282l.194.3,1.2-.176a13.129,13.129,0,0,0,2.073-.494h.882a8.5,8.5,0,0,1,1.244.159c-.15.432-.344,1.076-.591,1.932l-.635,2.2c-.229.821-.4,1.4-.494,1.765l-2,.565c-.988.565-1.482,1.765-1.482,3.591q0,.388.159,2.7.079,1.279.079,2.7a10.508,10.508,0,0,1-1.579.4,9.6,9.6,0,0,1-1.765.256Z" transform="translate(-38.239 -1.054)"/>
    <path id="Tracé_77" data-name="Tracé 77" class="cls-1" d="M99.584,25.431a5.674,5.674,0,0,1-.591.882c-.176.212-.318.379-.424.494A7.614,7.614,0,0,1,95.385,26a9.273,9.273,0,0,1-3.529-2.735,8.02,8.02,0,0,1-1.668-5.047,9.167,9.167,0,0,1,2.479-6.8,8.382,8.382,0,0,1,6.176-2.365,10.04,10.04,0,0,1,6.326,1.765,7.588,7.588,0,0,1,2.5,3.635l.688,2.647c0,.318.062.626.071.926s0,.794,0,1.491H98.446q0,.529,1.006,1.218c.732.388,1.473.768,2.223,1.147a4.121,4.121,0,0,1-.609,1.094l-.944,1.412Zm1.368-9.705a8.319,8.319,0,0,0-.476-1.385,1.562,1.562,0,0,0-1.112-.644,2.082,2.082,0,0,0-1.412.538,1.87,1.87,0,0,0-.626,1.491Z" transform="translate(-40.101 -1.098)"/>
    <path id="Tracé_78" data-name="Tracé 78" class="cls-1" d="M116.969.181a4.764,4.764,0,0,1,.723-.071h1.941a5.912,5.912,0,0,0,.679-.071V13.477q.8-.882,2.276-2.488l2.02-2.162h7.473L127,16.653l5.188,6.988a12.278,12.278,0,0,0-1.623.115c-.9.115-1.95.185-3.167.318a21.731,21.731,0,0,0-2.647.415c-.671-.768-1.385-1.606-2.135-2.506-.882-1.041-1.509-1.862-2.012-2.47v4.517l-1.632-.2a17.541,17.541,0,0,1-1.95-.3l-1.235-.194h-.962l-1.094-.053V20.527c0-2.347,0-4.614-.071-6.8s-.088-4.517-.141-6.988-.079-4.588-.079-6.344a4.005,4.005,0,0,0,.7.053h1.4Z" transform="translate(-42.84 -0.04)"/>
  </g>
  <g id="soleil" transform="translate(0.04 32.062)">
    <path id="Tracé_79" data-name="Tracé 79" class="cls-1" d="M98.772,36.927c0,9.767-16.058,17.646-35.856,17.646S27.069,46.632,27.069,36.927a3.723,3.723,0,0,1,0-.547H98.71A2.807,2.807,0,0,1,98.772,36.927Z" transform="translate(-3.63 -36.38)"/>
    <path id="Tracé_80" data-name="Tracé 80" class="cls-1" d="M.65,44.819c.829,1.7,4.95,2,9.211.679S18,39.093,18,39.093s-6.9-1.1-11.152.229S-.179,43.116.65,44.819Z" transform="translate(-0.504 -36.649)"/>
    <path id="Tracé_81" data-name="Tracé 81" class="cls-1" d="M132.855,44.819c-.829,1.7-4.958,2-9.211.679s-8.143-6.405-8.143-6.405,6.9-1.1,11.152.229S133.684,43.116,132.855,44.819Z" transform="translate(-14.041 -36.649)"/>
    <path id="Tracé_82" data-name="Tracé 82" class="cls-1" d="M19.421,64.2c1.65,1.262,5.55.132,8.69-2.523s3.979-8.558,3.979-8.558-6.829,1.35-9.97,4S17.762,62.94,19.421,64.2Z" transform="translate(-2.644 -38.351)"/>
    <path id="Tracé_83" data-name="Tracé 83" class="cls-1" d="M113.378,63.27c-1.659,1.262-5.55.132-8.7-2.523S100.7,52.18,100.7,52.18s6.829,1.35,9.979,4.006S115.028,62.009,113.378,63.27Z" transform="translate(-12.299 -38.24)"/>
    <path id="Tracé_84" data-name="Tracé 84" class="cls-1" d="M53.132,73.7c2.267.229,4.561-2.532,5.135-6.176S55.126,58.7,55.126,58.7s-4.5,4.332-5.073,7.941S50.873,73.469,53.132,73.7Z" transform="translate(-6.322 -39.007)"/>
    <path id="Tracé_85" data-name="Tracé 85" class="cls-1" d="M85.067,74.1c-2.267.229-4.57-2.532-5.135-6.176S83.073,59.1,83.073,59.1s4.5,4.332,5.064,7.941S87.335,73.869,85.067,74.1Z" transform="translate(-9.847 -39.055)"/>
    <path id="Tracé_86" data-name="Tracé 86" class="cls-1" d="M27.216,48.466,21.755,43.49,18.27,50.354Z" transform="translate(-2.595 -37.217)"/>
    <path id="Tracé_87" data-name="Tracé 87" class="cls-1" d="M106.84,49.1l5.47-4.976,3.476,6.864Z" transform="translate(-13.022 -37.291)"/>
    <path id="Tracé_88" data-name="Tracé 88" class="cls-1" d="M46.376,57.849,38.63,55.52l.962,7.367Z" transform="translate(-4.992 -38.633)"/>
    <path id="Tracé_89" data-name="Tracé 89" class="cls-1" d="M88.25,58.258,96,55.92l-.953,7.367Z" transform="translate(-10.833 -38.68)"/>
    <path id="Tracé_90" data-name="Tracé 90" class="cls-1" d="M74,60.153,65.73,60.1,69.8,66.752Z" transform="translate(-8.182 -39.172)"/>
  </g>
  <path id="a" class="cls-1" d="M15.617,16.662V15.524a5.664,5.664,0,0,0-.371-2.585q-.459-.741-2.223-.741a2.285,2.285,0,0,0-1.826.953,3.132,3.132,0,0,0-.768,1.985,2.964,2.964,0,0,0,.882,2.232,2.92,2.92,0,0,0,2.1.838,3.9,3.9,0,0,0,1.482-.2A1.323,1.323,0,0,0,15.617,16.662ZM18.485,25.9a5.294,5.294,0,0,0-1.306.565q-.309-.468-.423-.609a.565.565,0,0,0-.441-.282c-1.323.221-2.594.423-3.82.609a20.619,20.619,0,0,1-2.559.282,7.711,7.711,0,0,1-3.926-1.218,10.632,10.632,0,0,1-3.785-3.8A12.581,12.581,0,0,1,.46,14.836a12.14,12.14,0,0,1,.671-4.129A11.081,11.081,0,0,1,2.789,7.743,8.629,8.629,0,0,1,6.7,5.1a12.873,12.873,0,0,1,4.3-.7,11.761,11.761,0,0,1,2.576.247,4.226,4.226,0,0,1,1.482.512,2.647,2.647,0,0,0,.212-.512L15.4,4.2c.194,0,.882,0,2.126-.088s2.409-.088,3.529-.088l1.359-.2,3.044-.176V17.827a54.2,54.2,0,0,0,.494,6.529c-1.385.185-6.82,1.359-7.464,1.544Z" transform="translate(-0.459 -0.464)"/>
</svg>
