<svg xmlns="http://www.w3.org/2000/svg" viewBox="0 0 200.985 113.309">
  <defs>
    <style>
      .cls-1, .cls-2 {
        fill: #fff;
      }

      .cls-2 {
        stroke: #fff;
        stroke-miterlimit: 10;
      }
    </style>
  </defs>
  <g id="logo_blanc" transform="translate(-14.542 -93.141)">
    <g id="corps" transform="translate(63.876 93.141)">
      <path id="Tracé_74" data-name="Tracé 74" class="cls-1" d="M48.767,8.208,40.211,8H36.578a26.186,26.186,0,0,1,.667,3.707c.119,1.186.178,2.506.178,3.929V17.4c0,.608-.074,1.082-.1,1.483h7.473L33.42,35.788q4.849-.445,7.874-.8h4.122l3.677.133,5.709.163q3.6.089,4.982.089a11.18,11.18,0,0,0,1.186-2.4c.593-1.231,1.2-2.55,1.824-3.974.3-.7.593-1.394.9-2.076H58.658l-3.588-.475L62.795,9.29l-7.043-.563S52.252,8.3,48.767,8.208Z" transform="translate(-33.42 3.803)"/>
      <path id="Tracé_75" data-name="Tracé 75" class="cls-1" d="M64.717,38.87c-.786.208-1.483.356-2.12.475l-1.9.356V21.906H57.733L56.71,12.12h4V4.35a7.948,7.948,0,0,1,2.031-.563,14.605,14.605,0,0,0,1.587-.3l8.452-1.75-.119,10.039h1.72l1.883.074a16.762,16.762,0,0,0,2.284-.119c-.163.845-.311,1.705-.46,2.55l-.9,4.864a19.468,19.468,0,0,1-.638,2.758h-3.9V37.3c-.919.341-1.765.608-2.521.816S64.717,38.87,64.717,38.87Z" transform="translate(-22.175 0.781)"/>
      <path id="Tracé_76" data-name="Tracé 76" class="cls-1" d="M78.645,36.245l-1.928.519a12.693,12.693,0,0,1-1.987.371L74.36,9.065h2l8.66-.267a4.643,4.643,0,0,1,.341.475l.326.5,2.017-.3a22.065,22.065,0,0,0,3.485-.83h1.483a14.28,14.28,0,0,1,2.091.267c-.252.727-.578,1.809-.994,3.247L92.7,15.857c-.386,1.379-.667,2.358-.83,2.966l-3.366.949c-1.661.949-2.491,2.966-2.491,6.035q0,.652.267,4.537.133,2.15.133,4.537a17.66,17.66,0,0,1-2.654.667,16.134,16.134,0,0,1-2.966.43Z" transform="translate(-13.653 4.117)"/>
      <path id="Tracé_77" data-name="Tracé 77" class="cls-1" d="M105.99,36.6A9.535,9.535,0,0,1,105,38.079c-.3.356-.534.638-.712.83a12.8,12.8,0,0,1-5.353-1.364A15.584,15.584,0,0,1,93,32.949a13.479,13.479,0,0,1-2.8-8.482,15.407,15.407,0,0,1,4.167-11.433,14.087,14.087,0,0,1,10.38-3.974,16.875,16.875,0,0,1,10.632,2.966,12.752,12.752,0,0,1,4.2,6.109l1.157,4.448c0,.534.1,1.053.119,1.557s0,1.335,0,2.506H104.077q0,.89,1.69,2.046c1.231.652,2.476,1.29,3.737,1.928a6.925,6.925,0,0,1-1.023,1.839l-1.587,2.373Zm2.3-16.311a13.981,13.981,0,0,0-.8-2.328,2.625,2.625,0,0,0-1.868-1.082,3.5,3.5,0,0,0-2.373.9,3.144,3.144,0,0,0-1.053,2.506Z" transform="translate(-6.018 4.3)"/>
      <path id="Tracé_78" data-name="Tracé 78" class="cls-1" d="M119.371.277a8.007,8.007,0,0,1,1.216-.119h3.262A9.935,9.935,0,0,0,124.991.04V22.623q1.349-1.483,3.826-4.182l3.4-3.633h12.56l-8.541,13.153,8.719,11.744a20.636,20.636,0,0,0-2.728.193c-1.512.193-3.277.311-5.323.534a36.52,36.52,0,0,0-4.448.7c-1.127-1.29-2.328-2.7-3.588-4.211-1.483-1.75-2.536-3.129-3.381-4.152v7.592l-2.743-.341a29.479,29.479,0,0,1-3.277-.5l-2.076-.326h-1.616l-1.839-.089V34.471c0-3.944,0-7.755-.119-11.433s-.148-7.592-.237-11.744S113.44,3.584,113.44.633a6.732,6.732,0,0,0,1.171.089h2.358Z" transform="translate(5.216 -0.04)"/>
    </g>
    <g id="soleil" transform="translate(15.068 147.027)">
      <path id="Tracé_79" data-name="Tracé 79" class="cls-2" d="M147.585,37.3c0,16.415-26.987,29.657-60.262,29.657S27.076,53.61,27.076,37.3a6.256,6.256,0,0,1,0-.919H147.481a4.716,4.716,0,0,1,.1.919Z" transform="translate(12.317 -36.38)"/>
      <path id="Tracé_80" data-name="Tracé 80" class="cls-2" d="M.75,49.008c1.394,2.862,8.319,3.366,15.481,1.142S29.917,39.385,29.917,39.385s-11.6-1.854-18.743.386S-.644,46.146.75,49.008Z" transform="translate(-0.504 -35.277)"/>
      <path id="Tracé_81" data-name="Tracé 81" class="cls-2" d="M144.667,49.008c-1.394,2.862-8.333,3.366-15.481,1.142S115.5,39.385,115.5,39.385s11.6-1.854,18.743.386S146.061,46.146,144.667,49.008Z" transform="translate(55.019 -35.277)"/>
      <path id="Tracé_82" data-name="Tracé 82" class="cls-2" d="M19.926,71.744c2.773,2.12,9.327.222,14.606-4.241S41.22,53.12,41.22,53.12s-11.477,2.269-16.756,6.717S17.138,69.624,19.926,71.744Z" transform="translate(8.271 -28.297)"/>
      <path id="Tracé_83" data-name="Tracé 83" class="cls-2" d="M122.008,70.819c-2.788,2.12-9.327.222-14.621-4.241s-6.688-14.4-6.688-14.4,11.477,2.269,16.771,6.732S124.781,68.7,122.008,70.819Z" transform="translate(47.873 -28.751)"/>
      <path id="Tracé_84" data-name="Tracé 84" class="cls-2" d="M55.316,83.908c3.811.386,7.666-4.256,8.63-10.38S58.667,58.7,58.667,58.7,51.1,65.981,50.141,72.045,51.52,83.523,55.316,83.908Z" transform="translate(23.357 -25.603)"/>
      <path id="Tracé_85" data-name="Tracé 85" class="cls-2" d="M88.6,84.308c-3.811.386-7.681-4.256-8.63-10.38S85.251,59.1,85.251,59.1s7.562,7.281,8.511,13.345S92.413,83.923,88.6,84.308Z" transform="translate(37.818 -25.41)"/>
      <path id="Tracé_86" data-name="Tracé 86" class="cls-2" d="M33.306,51.853,24.127,43.49,18.27,55.026Z" transform="translate(8.074 -32.947)"/>
      <path id="Tracé_87" data-name="Tracé 87" class="cls-2" d="M106.84,52.483l9.194-8.363,5.842,11.536Z" transform="translate(50.838 -32.643)"/>
      <path id="Tracé_88" data-name="Tracé 88" class="cls-2" d="M51.649,59.435,38.63,55.52,40.246,67.9Z" transform="translate(17.904 -27.139)"/>
      <path id="Tracé_89" data-name="Tracé 89" class="cls-2" d="M88.25,59.85l13.019-3.93L99.668,68.3Z" transform="translate(41.862 -26.946)"/>
      <path id="Tracé_90" data-name="Tracé 90" class="cls-2" d="M79.624,60.189,65.73,60.1l6.836,11.181Z" transform="translate(30.989 -24.927)"/>
    </g>
    <path id="a" class="cls-1" d="M25.936,25.527V23.614a9.52,9.52,0,0,0-.623-4.345q-.771-1.246-3.737-1.246a3.841,3.841,0,0,0-3.069,1.6,5.264,5.264,0,0,0-1.29,3.336A4.982,4.982,0,0,0,18.7,26.713a4.908,4.908,0,0,0,3.529,1.409,6.554,6.554,0,0,0,2.491-.341A2.224,2.224,0,0,0,25.936,25.527Zm4.819,15.525A8.9,8.9,0,0,0,28.56,42q-.519-.786-.712-1.023a.949.949,0,0,0-.741-.475c-2.224.371-4.36.712-6.421,1.023a34.653,34.653,0,0,1-4.3.475,12.96,12.96,0,0,1-6.6-2.046,17.868,17.868,0,0,1-6.361-6.391A21.145,21.145,0,0,1,.461,22.457a20.4,20.4,0,0,1,1.127-6.94,18.624,18.624,0,0,1,2.788-4.982,14.5,14.5,0,0,1,6.569-4.448,21.635,21.635,0,0,1,7.221-1.171,19.766,19.766,0,0,1,4.33.415,7.1,7.1,0,0,1,2.491.86,4.449,4.449,0,0,0,.356-.86l.222-.756c.326,0,1.483,0,3.574-.148s4.048-.148,5.931-.148l2.284-.341,5.116-.3V27.484a91.092,91.092,0,0,0,.83,10.973c-2.328.311-11.462,2.284-12.545,2.595Z" transform="translate(14.541 94.839)"/>
  </g>
</svg>
