<svg xmlns="http://www.w3.org/2000/svg" viewBox="0 0 182 102.654">
  <defs>
    <style>
      .cls-1 {
        fill: #e2aa1f;
      }
    </style>
  </defs>
  <g id="logo_jaune_petit" transform="translate(-96.5 -5324.277)">
    <g id="corps" transform="translate(140.977 5324.277)">
      <path id="Tracé_74" data-name="Tracé 74" class="cls-1" d="M47.386,8.189,39.6,8H36.294a23.829,23.829,0,0,1,.607,3.373c.108,1.08.162,2.28.162,3.576v1.606c0,.553-.067.985-.094,1.349h6.8L33.42,33.287q4.412-.4,7.165-.729h3.751l3.346.121,5.2.148q3.279.081,4.534.081a10.173,10.173,0,0,0,1.079-2.186c.54-1.12,1.093-2.321,1.66-3.616.27-.634.54-1.268.823-1.889H56.386l-3.265-.432,7.03-15.612-6.41-.513S50.557,8.27,47.386,8.189Z" transform="translate(-33.42 2.741)"/>
      <path id="Tracé_75" data-name="Tracé 75" class="cls-1" d="M64,35.528c-.715.189-1.349.324-1.93.432l-1.727.324V20.091h-2.7l-.931-8.906h3.643V4.115A7.233,7.233,0,0,1,62.2,3.6a13.291,13.291,0,0,0,1.444-.27L71.337,1.74l-.108,9.135h1.565l1.714.067a15.253,15.253,0,0,0,2.078-.108c-.148.769-.283,1.552-.418,2.321l-.823,4.426a17.716,17.716,0,0,1-.58,2.51H71.216V34.1c-.837.31-1.606.553-2.294.742S64,35.528,64,35.528Z" transform="translate(-25.283 0.554)"/>
      <path id="Tracé_76" data-name="Tracé 76" class="cls-1" d="M78.26,33.762l-1.754.472a11.55,11.55,0,0,1-1.808.337L74.36,9.028h1.822l7.88-.243a4.225,4.225,0,0,1,.31.432l.3.459,1.835-.27a20.079,20.079,0,0,0,3.171-.756h1.349a13,13,0,0,1,1.9.243c-.229.661-.526,1.646-.9,2.955l-.972,3.36c-.351,1.255-.607,2.146-.756,2.7l-3.063.864c-1.511.864-2.267,2.7-2.267,5.492q0,.594.243,4.129.121,1.957.121,4.129a16.071,16.071,0,0,1-2.415.607,14.681,14.681,0,0,1-2.7.391Z" transform="translate(-19.117 2.968)"/>
      <path id="Tracé_77" data-name="Tracé 77" class="cls-1" d="M104.567,34.115a8.678,8.678,0,0,1-.9,1.349c-.27.324-.486.58-.648.756a11.645,11.645,0,0,1-4.871-1.241,14.182,14.182,0,0,1-5.4-4.183,12.266,12.266,0,0,1-2.55-7.718,14.02,14.02,0,0,1,3.792-10.4,12.819,12.819,0,0,1,9.446-3.616,15.356,15.356,0,0,1,9.675,2.7,11.6,11.6,0,0,1,3.819,5.559l1.053,4.048c0,.486.094.958.108,1.417s0,1.214,0,2.28H102.826q0,.81,1.538,1.862c1.12.594,2.253,1.174,3.4,1.754a6.3,6.3,0,0,1-.931,1.673L105.39,32.51Zm2.092-14.843a12.721,12.721,0,0,0-.729-2.119,2.388,2.388,0,0,0-1.7-.985,3.185,3.185,0,0,0-2.159.823,2.861,2.861,0,0,0-.958,2.28Z" transform="translate(-13.592 3.1)"/>
      <path id="Tracé_78" data-name="Tracé 78" class="cls-1" d="M118.838.256a7.287,7.287,0,0,1,1.106-.108h2.969A9.041,9.041,0,0,0,123.952.04V20.591q1.228-1.349,3.481-3.805l3.09-3.306h11.429L134.18,25.449l7.934,10.687a18.779,18.779,0,0,0-2.483.175c-1.376.175-2.982.283-4.844.486a33.233,33.233,0,0,0-4.048.634c-1.026-1.174-2.119-2.456-3.266-3.832-1.349-1.592-2.307-2.847-3.077-3.778V36.73l-2.5-.31a26.826,26.826,0,0,1-2.982-.459l-1.889-.3h-1.471l-1.673-.081v-4.21c0-3.589,0-7.057-.108-10.4s-.135-6.909-.216-10.687-.121-7.017-.121-9.7a6.126,6.126,0,0,0,1.066.081h2.146Z" transform="translate(-5.463 -0.04)"/>
    </g>
    <g id="soleil" transform="translate(96.562 5373.313)">
      <path id="Tracé_79" data-name="Tracé 79" class="cls-1" d="M136.738,37.217c0,14.938-24.559,26.988-54.839,26.988S27.074,52.06,27.074,37.217a5.694,5.694,0,0,1,0-.837H136.643a4.293,4.293,0,0,1,.094.837Z" transform="translate(8.773 -36.38)"/>
      <path id="Tracé_80" data-name="Tracé 80" class="cls-1" d="M.728,48.077C2,50.681,8.3,51.14,14.815,49.116s12.455-9.8,12.455-9.8-10.552-1.687-17.056.351S-.54,45.473.728,48.077Z" transform="translate(-0.504 -35.582)"/>
      <path id="Tracé_81" data-name="Tracé 81" class="cls-1" d="M142.042,48.077c-1.268,2.6-7.583,3.063-14.087,1.039s-12.455-9.8-12.455-9.8,10.552-1.687,17.056.351S143.311,45.473,142.042,48.077Z" transform="translate(39.673 -35.582)"/>
      <path id="Tracé_82" data-name="Tracé 82" class="cls-1" d="M19.814,70.068c2.523,1.93,8.488.2,13.291-3.859S39.191,53.12,39.191,53.12s-10.444,2.065-15.248,6.113S17.277,68.139,19.814,70.068Z" transform="translate(5.846 -30.531)"/>
      <path id="Tracé_83" data-name="Tracé 83" class="cls-1" d="M120.091,69.142c-2.537,1.93-8.488.2-13.3-3.859s-6.086-13.1-6.086-13.1,10.444,2.065,15.261,6.126S122.614,67.212,120.091,69.142Z" transform="translate(34.502 -30.86)"/>
      <path id="Tracé_84" data-name="Tracé 84" class="cls-1" d="M54.83,81.639c3.468.351,6.976-3.873,7.853-9.446S57.88,58.7,57.88,58.7,51,65.325,50.121,70.844,51.376,81.289,54.83,81.639Z" transform="translate(16.762 -28.582)"/>
      <path id="Tracé_85" data-name="Tracé 85" class="cls-1" d="M87.817,82.039c-3.468.351-6.99-3.873-7.853-9.446s4.8-13.494,4.8-13.494,6.882,6.625,7.745,12.144S91.284,81.689,87.817,82.039Z" transform="translate(27.226 -28.442)"/>
      <path id="Tracé_86" data-name="Tracé 86" class="cls-1" d="M31.953,51.1,23.6,43.49l-5.33,10.5Z" transform="translate(5.703 -33.896)"/>
      <path id="Tracé_87" data-name="Tracé 87" class="cls-1" d="M106.84,51.73l8.366-7.61,5.317,10.5Z" transform="translate(36.647 -33.676)"/>
      <path id="Tracé_88" data-name="Tracé 88" class="cls-1" d="M50.478,59.082,38.63,55.52,40.1,66.787Z" transform="translate(12.816 -29.693)"/>
      <path id="Tracé_89" data-name="Tracé 89" class="cls-1" d="M88.25,59.5,100.1,55.92,98.64,67.187Z" transform="translate(30.152 -29.553)"/>
      <path id="Tracé_90" data-name="Tracé 90" class="cls-1" d="M78.374,60.181,65.73,60.1l6.221,10.174Z" transform="translate(22.284 -28.093)"/>
    </g>
    <path id="a" class="cls-1" d="M23.643,23.557V21.816a8.663,8.663,0,0,0-.567-3.954q-.7-1.133-3.4-1.133a3.5,3.5,0,0,0-2.793,1.457,4.79,4.79,0,0,0-1.174,3.036,4.534,4.534,0,0,0,1.349,3.414,4.466,4.466,0,0,0,3.212,1.282,5.964,5.964,0,0,0,2.267-.31A2.024,2.024,0,0,0,23.643,23.557Zm4.385,14.128a8.1,8.1,0,0,0-2,.864q-.472-.715-.648-.931a.864.864,0,0,0-.675-.432c-2.024.337-3.967.648-5.843.931a31.536,31.536,0,0,1-3.913.432,11.794,11.794,0,0,1-6-1.862A16.26,16.26,0,0,1,3.159,30.87a19.242,19.242,0,0,1-2.7-10.107,18.567,18.567,0,0,1,1.026-6.315A16.948,16.948,0,0,1,4.023,9.915,13.2,13.2,0,0,1,10,5.866,19.687,19.687,0,0,1,16.572,4.8a17.987,17.987,0,0,1,3.94.378,6.463,6.463,0,0,1,2.267.783,4.048,4.048,0,0,0,.324-.783l.2-.688c.3,0,1.349,0,3.252-.135s3.684-.135,5.4-.135l2.078-.31,4.655-.27v21.7a82.893,82.893,0,0,0,.756,9.985c-2.119.283-10.431,2.078-11.416,2.361Z" transform="translate(96.041 5325.495)"/>
  </g>
</svg>
