<svg xmlns="http://www.w3.org/2000/svg" viewBox="0 0 119 37.502">
  <defs>
    <style>
      .cls-1 {
        fill: #cc5803;
      }
    </style>
  </defs>
  <g id="soleil_orange" transform="translate(-133 -35.42)">
    <path id="Tracé_3" data-name="Tracé 3" class="cls-1" d="M138.7,66.6" transform="translate(113.3 -31.18)"/>
    <path id="Tracé_4" data-name="Tracé 4" class="cls-1" d="M129.129,67.191c0,10.407-15.965,18.922-35.715,18.922S57.7,77.6,57.7,67.191V66.6h71.311A.886.886,0,0,1,129.129,67.191Z" transform="translate(98.509 -31.18)"/>
    <path id="Tracé_5" data-name="Tracé 5" class="cls-1" d="M38.223,75.021c.828,1.774,4.967,2.129,9.224.71s8.16-6.859,8.16-6.859-6.859-1.183-11.117.237C40.115,70.527,37.4,73.129,38.223,75.021Z" transform="translate(94.925 -30.849)"/>
    <path id="Tracé_6" data-name="Tracé 6" class="cls-1" d="M140.684,75.021c-.828,1.774-4.967,2.129-9.224.71s-8.16-6.859-8.16-6.859,6.859-1.183,11.116.237S141.512,73.129,140.684,75.021Z" transform="translate(110.488 -30.849)"/>
    <path id="Tracé_7" data-name="Tracé 7" class="cls-1" d="M52.316,91.844c1.656,1.3,5.558.118,8.633-2.72s3.9-9.224,3.9-9.224-6.741,1.419-9.934,4.257C51.843,87.114,50.66,90.425,52.316,91.844Z" transform="translate(97.389 -28.751)"/>
    <path id="Tracé_8" data-name="Tracé 8" class="cls-1" d="M125.036,91.044c-1.656,1.3-5.558.118-8.633-2.72s-3.9-9.224-3.9-9.224,6.741,1.419,9.934,4.257C125.509,86.314,126.691,89.743,125.036,91.044Z" transform="translate(108.516 -28.897)"/>
    <path id="Tracé_9" data-name="Tracé 9" class="cls-1" d="M77.89,100.483c2.247.237,4.494-2.72,5.085-6.623S79.9,84.4,79.9,84.4s-4.494,4.612-5.085,8.515C74.342,96.817,75.643,100.247,77.89,100.483Z" transform="translate(101.617 -27.929)"/>
    <path id="Tracé_10" data-name="Tracé 10" class="cls-1" d="M102.1,100.783c-2.247.237-4.494-2.72-5.085-6.623s3.075-9.461,3.075-9.461,4.494,4.612,5.085,8.515C105.761,97.236,104.342,100.547,102.1,100.783Z" transform="translate(105.675 -27.875)"/>
    <path id="Tracé_11" data-name="Tracé 11" class="cls-1" d="M60.188,77.64l-5.44-5.44L51.2,79.65Z" transform="translate(97.322 -30.157)"/>
    <path id="Tracé_12" data-name="Tracé 12" class="cls-1" d="M117,78.022l5.44-5.322,3.43,7.45Z" transform="translate(109.337 -30.066)"/>
    <path id="Tracé_13" data-name="Tracé 13" class="cls-1" d="M74.105,84.383,66.3,81.9l.946,7.805Z" transform="translate(100.079 -28.386)"/>
    <path id="Tracé_14" data-name="Tracé 14" class="cls-1" d="M103.2,84.683l7.687-2.483-.946,7.923Z" transform="translate(106.818 -28.331)"/>
    <path id="Tracé_15" data-name="Tracé 15" class="cls-1" d="M94.66,85.618,86.5,85.5l4.021,7.1Z" transform="translate(103.768 -27.729)"/>
  </g>
</svg>
